<?xml version="1.0" encoding="UTF-8"?>
<svg id="Layer_2" data-name="Layer 2" xmlns="http://www.w3.org/2000/svg" viewBox="0 730 2048 590">
  <defs>
    <style>
      .cls-1 {
        fill: #1d3651;
      }

      .cls-2 {
        fill: #1e3751;
      }

      .cls-3 {
        fill: #2c3f58;
      }

      .cls-4 {
        fill: #1e3651;
      }

      .cls-5 {
        fill: #293d54;
      }
    </style>
  </defs>
  <g id="Layer_1-2" data-name="Layer 1">
    <g>
      <path class="cls-1" d="M1383.02,1049.62c-.04,58.18,46.68,102.46,107.68,102.95l48.44.39c2.88.02,7.22,4.29,7.22,6.66v119.49c-.01,4.74-4.11,8.86-8.75,8.83l-52.5-.25c-109.76-.52-207.74-75.34-232.62-183.04-5.52-23.89-7.9-46.41-7.91-71.2l-.07-262.94c0-4.76,4.36-8.88,8.81-8.88l122.07-.03c3.92.6,7.03,4.16,7.04,7.98l.31,90.22,156.54.07c2.49,0,6.36,3.86,7.12,6.32l.04,123.11c-.39,3.37-4.03,7.18-7.51,7.18h-155.89s-.04,53.14-.04,53.14Z"/>
      <path class="cls-2" d="M877.44,1168.64c77.96-61.09,91.56-171,30.91-248.33-11.35-14.47-25.34-25.75-40.29-39.14,18.27-6.74,35.14-20.16,35.39-39.69l.39-31.18c127.9,75.45,163.38,246.38,76.87,366.77-55.3,76.96-145.7,118.66-241.35,109.63-97.98-10.68-182.84-77.16-216.93-168.65-53.16-142.68,28.39-297.01,174.64-335.66,1.68-9.76,9.54-22.03,20.63-22.08l65.76-.32c5.04-.02,10.55,6.49,10.55,11.42v94.36c.01,7.3-7.48,13.17-14.39,13.15l-57.85-.14c-9.44-.02-17.37-5.07-23.12-13.39-62.04,25.88-107.08,85.55-110.25,154.01-4.87,105.2,82.32,192.37,187.3,187.56,37.58-1.72,72-15.03,101.73-38.33Z"/>
      <path class="cls-1" d="M1198.44,1287.92l-123.15.14c-3.11,0-8.04-3.35-8.04-6.93l.12-335.33c.44-4.51,3.98-8.02,8.12-8l129.5.45.19,342.66c0,2.05-4.38,7.01-6.74,7.01Z"/>
      <circle class="cls-4" cx="1137" cy="830.13" r="70.19"/>
      <path class="cls-3" d="M868.57,810.69l-45.25.78c-6.31.11-11.73-3.89-13.14-9.26-1.11-4.25,2.18-13.81,7.49-13.81h49.83c3.44.01,7.45,7.06,7.8,10.35s-3.19,11.88-6.72,11.94Z"/>
      <path class="cls-5" d="M866.61,852.52l-45.19.39c-5.93.05-10.94-5.35-11.51-10.47s3.44-12.84,9.52-12.81l48.01.24c3.82.02,7.8,7.5,7.96,10.84.18,3.7-4.28,11.79-8.79,11.83Z"/>
    </g>
  </g>
</svg>